# xmcd
#
# Track frame offsets:
#	150
#	11602
#	22561
#	31537
#	40106
#	50778
#	60710
#	70178
#	84396
#	94372
#	104048
#	112094
#	122302
#	130928
#	142779
#	152445
#	166457
#	179075
#	190158
#	204191
#
# Disc length: 2846 seconds
#
# Revision: 1
# Processed by: cddbd v1.5.2PL0 Copyright (c) Steve Scherf et al.
# Submitted via: audiograbber 1.83.01
#
DISCID=030b1c14
DTITLE=Various Artist - Train Songs CD 07 - Rock Island Line
DYEAR=2011
DGENRE=Country
TTITLE0=Vernont Taylor - Mystery Train
TTITLE1=Johnny Horton - Big Wheels Rolling'
TTITLE2=Billy Joe Tucker - Mail Train
TTITLE3=Rudy Thacker - BlackTrain
TTITLE4=Marty Martin - Boxcar Willie
TTITLE5=Johnny Cash - Rock Island Line
TTITLE6=Gene Parson - Wreck Of The Ol' Number Nine
TTITLE7=Bob Wills - Take The "A" Train
TTITLE8=Eddie Plew and The Juniors - Midnight Train
TTITLE9=Gene Norman and The Rocking Rockets - Lone Gone Night Train
TTITLE10=Arlie Miller - Big Black Train
TTITLE11=Hank Snow - The Wreck Of The Old '97
TTITLE12=Ray Scott - The Train 's Done Gone
TTITLE13=Billy Strange and His Orchestra - Hell Train
TTITLE14=Bob Riley - The Midnight Line
TTITLE15=Chuck Manning and The Rhythm Ranch Boys - Let's Go
TTITLE16=Ivory Joe Hunter - Stop Rockin' That Train
TTITLE17=Gene and Jerry - Freight Train Blues
TTITLE18=Mabel Scott - Boogie Woogie Choo Choo Train
TTITLE19=Ronnie Murray - Train Train 
EXTD=YEAR: 2011
EXTT0=
EXTT1=
EXTT2=
EXTT3=
EXTT4=
EXTT5=
EXTT6=
EXTT7=
EXTT8=
EXTT9=
EXTT10=
EXTT11=
EXTT12=
EXTT13=
EXTT14=
EXTT15=
EXTT16=
EXTT17=
EXTT18=
EXTT19=
PLAYORDER=
